<svg width="1005" height="926" viewBox="0 0 1005 926" fill="none" xmlns="http://www.w3.org/2000/svg">
<g opacity="0.85">
<path d="M135.014 566.676H130.57V571.121H135.014V566.676Z" fill="#FF6600"/>
<path d="M127.234 567.231V563.342H131.123" stroke="#FF6600" stroke-width="1.8"/>
<path d="M134.453 563.342H138.342V567.231" stroke="#FF6600" stroke-width="1.8"/>
<path d="M138.342 570.564V574.454H134.453" stroke="#FF6600" stroke-width="1.8"/>
<path d="M131.123 574.454H127.234V570.564" stroke="#FF6600" stroke-width="1.8"/>
</g>
<g opacity="0.85">
<path d="M101.6 466.343H97.1562V470.788H101.6V466.343Z" fill="#FF6600"/>
<path d="M93.8203 466.898V463.009H97.7088" stroke="#FF6600" stroke-width="1.8"/>
<path d="M101.039 463.009H104.928V466.898" stroke="#FF6600" stroke-width="1.8"/>
<path d="M104.928 470.231V474.121H101.039" stroke="#FF6600" stroke-width="1.8"/>
<path d="M97.7088 474.121H93.8203V470.231" stroke="#FF6600" stroke-width="1.8"/>
</g>
<g opacity="0.85">
<path d="M134.1 455.935H129.656V460.379H134.1V455.935Z" fill="#FF6600"/>
<path d="M126.32 456.49V452.601H130.209" stroke="#FF6600" stroke-width="1.8"/>
<path d="M133.539 452.601H137.428V456.49" stroke="#FF6600" stroke-width="1.8"/>
<path d="M137.428 459.823V463.712H133.539" stroke="#FF6600" stroke-width="1.8"/>
<path d="M130.209 463.712H126.32V459.823" stroke="#FF6600" stroke-width="1.8"/>
</g>
<g opacity="0.85">
<path d="M114.147 425.581H109.703V430.026H114.147V425.581Z" fill="#FF6600"/>
<path d="M106.367 426.136V422.247H110.256" stroke="#FF6600" stroke-width="1.8"/>
<path d="M113.586 422.247H117.474V426.136" stroke="#FF6600" stroke-width="1.8"/>
<path d="M117.474 429.47V433.359H113.586" stroke="#FF6600" stroke-width="1.8"/>
<path d="M110.256 433.359H106.367V429.47" stroke="#FF6600" stroke-width="1.8"/>
</g>
<g opacity="0.85">
<path d="M105.428 386.994H100.984V391.439H105.428V386.994Z" fill="#FF6600"/>
<path d="M97.6484 387.549V383.66H101.537" stroke="#FF6600" stroke-width="1.8"/>
<path d="M104.867 383.66H108.756V387.549" stroke="#FF6600" stroke-width="1.8"/>
<path d="M108.756 390.883V394.772H104.867" stroke="#FF6600" stroke-width="1.8"/>
<path d="M101.537 394.772H97.6484V390.883" stroke="#FF6600" stroke-width="1.8"/>
</g>
<g opacity="0.85">
<path d="M167.655 467.371H163.211V471.816H167.655V467.371Z" fill="#FF6600"/>
<path d="M159.875 467.926V464.037H163.764" stroke="#FF6600" stroke-width="1.8"/>
<path d="M167.094 464.037H170.982V467.926" stroke="#FF6600" stroke-width="1.8"/>
<path d="M170.982 471.26V475.149H167.094" stroke="#FF6600" stroke-width="1.8"/>
<path d="M163.764 475.149H159.875V471.26" stroke="#FF6600" stroke-width="1.8"/>
</g>
<g opacity="0.85">
<path d="M250.671 595.965H246.227V600.41H250.671V595.965Z" fill="#FF6600"/>
<path d="M242.891 596.52V592.631H246.779" stroke="#FF6600" stroke-width="1.8"/>
<path d="M250.109 592.631H253.998V596.52" stroke="#FF6600" stroke-width="1.8"/>
<path d="M253.998 599.854V603.743H250.109" stroke="#FF6600" stroke-width="1.8"/>
<path d="M246.779 603.743H242.891V599.854" stroke="#FF6600" stroke-width="1.8"/>
</g>
<g opacity="0.85">
<path d="M236.514 557.896H232.07V562.341H236.514V557.896Z" fill="#FF6600"/>
<path d="M228.734 558.452V554.562H232.623" stroke="#FF6600" stroke-width="1.8"/>
<path d="M235.953 554.562H239.842V558.452" stroke="#FF6600" stroke-width="1.8"/>
<path d="M239.842 561.785V565.674H235.953" stroke="#FF6600" stroke-width="1.8"/>
<path d="M232.623 565.674H228.734V561.785" stroke="#FF6600" stroke-width="1.8"/>
</g>
<g opacity="0.85">
<path d="M176.311 395.412H171.867V399.857H176.311V395.412Z" fill="#FF6600"/>
<path d="M168.531 395.967V392.078H172.42" stroke="#FF6600" stroke-width="1.8"/>
<path d="M175.75 392.078H179.638V395.967" stroke="#FF6600" stroke-width="1.8"/>
<path d="M179.638 399.301V403.19H175.75" stroke="#FF6600" stroke-width="1.8"/>
<path d="M172.42 403.19H168.531V399.301" stroke="#FF6600" stroke-width="1.8"/>
</g>
<g opacity="0.85">
<path d="M160.561 362.779H156.117V367.224H160.561V362.779Z" fill="#FF6600"/>
<path d="M152.781 363.334V359.445H156.67" stroke="#FF6600" stroke-width="1.8"/>
<path d="M160 359.445H163.888V363.334" stroke="#FF6600" stroke-width="1.8"/>
<path d="M163.888 366.668V370.557H160" stroke="#FF6600" stroke-width="1.8"/>
<path d="M156.67 370.557H152.781V366.668" stroke="#FF6600" stroke-width="1.8"/>
</g>
<g opacity="0.85">
<path d="M294.577 611.142H290.133V615.586H294.577V611.142Z" fill="#FF6600"/>
<path d="M286.797 611.697V607.808H290.685" stroke="#FF6600" stroke-width="1.8"/>
<path d="M294.016 607.808H297.904V611.697" stroke="#FF6600" stroke-width="1.8"/>
<path d="M297.904 615.03V618.919H294.016" stroke="#FF6600" stroke-width="1.8"/>
<path d="M290.685 618.919H286.797V615.03" stroke="#FF6600" stroke-width="1.8"/>
</g>
<g opacity="0.85">
<path d="M278.194 580.991H273.75V585.436H278.194V580.991Z" fill="#FF6600"/>
<path d="M270.414 581.546V577.657H274.303" stroke="#FF6600" stroke-width="1.8"/>
<path d="M277.633 577.657H281.521V581.546" stroke="#FF6600" stroke-width="1.8"/>
<path d="M281.521 584.88V588.769H277.633" stroke="#FF6600" stroke-width="1.8"/>
<path d="M274.303 588.769H270.414V584.88" stroke="#FF6600" stroke-width="1.8"/>
</g>
<g opacity="0.85">
<path d="M272.663 541.377H268.219V545.822H272.663V541.377Z" fill="#FF6600"/>
<path d="M264.883 541.932V538.043H268.771" stroke="#FF6600" stroke-width="1.8"/>
<path d="M272.102 538.043H275.99V541.932" stroke="#FF6600" stroke-width="1.8"/>
<path d="M275.99 545.266V549.155H272.102" stroke="#FF6600" stroke-width="1.8"/>
<path d="M268.771 549.155H264.883V545.266" stroke="#FF6600" stroke-width="1.8"/>
</g>
<g opacity="0.85">
<path d="M252.467 512.412H248.023V516.857H252.467V512.412Z" fill="#FF6600"/>
<path d="M244.688 512.967V509.078H248.576" stroke="#FF6600" stroke-width="1.8"/>
<path d="M251.906 509.078H255.795V512.967" stroke="#FF6600" stroke-width="1.8"/>
<path d="M255.795 516.301V520.19H251.906" stroke="#FF6600" stroke-width="1.8"/>
<path d="M248.576 520.19H244.688V516.301" stroke="#FF6600" stroke-width="1.8"/>
</g>
<g opacity="0.85">
<path d="M225.717 440.609H221.273V445.054H225.717V440.609Z" fill="#FF6600"/>
<path d="M217.938 441.165V437.275H221.826" stroke="#FF6600" stroke-width="1.8"/>
<path d="M225.156 437.275H229.045V441.165" stroke="#FF6600" stroke-width="1.8"/>
<path d="M229.045 444.498V448.387H225.156" stroke="#FF6600" stroke-width="1.8"/>
<path d="M221.826 448.387H217.938V444.498" stroke="#FF6600" stroke-width="1.8"/>
</g>
<g opacity="0.85">
<path d="M193.616 347.51H189.172V351.955H193.616V347.51Z" fill="#FF6600"/>
<path d="M185.836 348.065V344.176H189.724" stroke="#FF6600" stroke-width="1.8"/>
<path d="M193.055 344.176H196.943V348.065" stroke="#FF6600" stroke-width="1.8"/>
<path d="M196.943 351.398V355.288H193.055" stroke="#FF6600" stroke-width="1.8"/>
<path d="M189.724 355.288H185.836V351.398" stroke="#FF6600" stroke-width="1.8"/>
</g>
<g opacity="0.85">
<path d="M176.1 313.85H171.656V318.294H176.1V313.85Z" fill="#FF6600"/>
<path d="M168.32 314.405V310.516H172.209" stroke="#FF6600" stroke-width="1.8"/>
<path d="M175.539 310.516H179.428V314.405" stroke="#FF6600" stroke-width="1.8"/>
<path d="M179.428 317.738V321.627H175.539" stroke="#FF6600" stroke-width="1.8"/>
<path d="M172.209 321.627H168.32V317.738" stroke="#FF6600" stroke-width="1.8"/>
</g>
<g opacity="0.85">
<path d="M314.405 564.546H309.961V568.991H314.405V564.546Z" fill="#FF6600"/>
<path d="M306.625 565.101V561.212H310.514" stroke="#FF6600" stroke-width="1.8"/>
<path d="M313.844 561.212H317.732V565.101" stroke="#FF6600" stroke-width="1.8"/>
<path d="M317.732 568.435V572.324H313.844" stroke="#FF6600" stroke-width="1.8"/>
<path d="M310.514 572.324H306.625V568.435" stroke="#FF6600" stroke-width="1.8"/>
</g>
<g opacity="0.85">
<path d="M286.928 489.179H282.484V493.623H286.928V489.179Z" fill="#FF6600"/>
<path d="M279.148 489.734V485.845H283.037" stroke="#FF6600" stroke-width="1.8"/>
<path d="M286.367 485.845H290.256V489.734" stroke="#FF6600" stroke-width="1.8"/>
<path d="M290.256 493.067V496.957H286.367" stroke="#FF6600" stroke-width="1.8"/>
<path d="M283.037 496.957H279.148V493.067" stroke="#FF6600" stroke-width="1.8"/>
</g>
<g opacity="0.85">
<path d="M269.921 460.723H265.477V465.167H269.921V460.723Z" fill="#FF6600"/>
<path d="M262.141 461.278V457.389H266.029" stroke="#FF6600" stroke-width="1.8"/>
<path d="M269.359 457.389H273.248V461.278" stroke="#FF6600" stroke-width="1.8"/>
<path d="M273.248 464.611V468.501H269.359" stroke="#FF6600" stroke-width="1.8"/>
<path d="M266.029 468.501H262.141V464.611" stroke="#FF6600" stroke-width="1.8"/>
</g>
<g opacity="0.85">
<path d="M245.35 395.254H240.906V399.699H245.35V395.254Z" fill="#FF6600"/>
<path d="M237.57 395.809V391.92H241.459" stroke="#FF6600" stroke-width="1.8"/>
<path d="M244.789 391.92H248.678V395.809" stroke="#FF6600" stroke-width="1.8"/>
<path d="M248.678 399.143V403.032H244.789" stroke="#FF6600" stroke-width="1.8"/>
<path d="M241.459 403.032H237.57V399.143" stroke="#FF6600" stroke-width="1.8"/>
</g>
<g opacity="0.85">
<path d="M340.217 543.84H335.773V548.285H340.217V543.84Z" fill="#FF6600"/>
<path d="M332.438 544.395V540.506H336.326" stroke="#FF6600" stroke-width="1.8"/>
<path d="M339.656 540.506H343.545V544.395" stroke="#FF6600" stroke-width="1.8"/>
<path d="M343.545 547.729V551.618H339.656" stroke="#FF6600" stroke-width="1.8"/>
<path d="M336.326 551.618H332.438V547.729" stroke="#FF6600" stroke-width="1.8"/>
</g>
<g opacity="0.85">
<path d="M327.139 513.097H322.695V517.542H327.139V513.097Z" fill="#FF6600"/>
<path d="M319.359 513.652V509.763H323.248" stroke="#FF6600" stroke-width="1.8"/>
<path d="M326.578 509.763H330.467V513.652" stroke="#FF6600" stroke-width="1.8"/>
<path d="M330.467 516.985V520.875H326.578" stroke="#FF6600" stroke-width="1.8"/>
<path d="M323.248 520.875H319.359V516.985" stroke="#FF6600" stroke-width="1.8"/>
</g>
<g opacity="0.85">
<path d="M312.311 475.918H307.867V480.363H312.311V475.918Z" fill="#FF6600"/>
<path d="M304.531 476.473V472.584H308.42" stroke="#FF6600" stroke-width="1.8"/>
<path d="M311.75 472.584H315.638V476.473" stroke="#FF6600" stroke-width="1.8"/>
<path d="M315.638 479.807V483.696H311.75" stroke="#FF6600" stroke-width="1.8"/>
<path d="M308.42 483.696H304.531V479.807" stroke="#FF6600" stroke-width="1.8"/>
</g>
<g opacity="0.85">
<path d="M274.632 384.976H270.188V389.42H274.632V384.976Z" fill="#FF6600"/>
<path d="M266.852 385.531V381.642H270.74" stroke="#FF6600" stroke-width="1.8"/>
<path d="M274.07 381.642H277.959V385.531" stroke="#FF6600" stroke-width="1.8"/>
<path d="M277.959 388.864V392.753H274.07" stroke="#FF6600" stroke-width="1.8"/>
<path d="M270.74 392.753H266.852V388.864" stroke="#FF6600" stroke-width="1.8"/>
</g>
<g opacity="0.85">
<path d="M248.358 319.795H243.914V324.24H248.358V319.795Z" fill="#FF6600"/>
<path d="M240.578 320.35V316.461H244.467" stroke="#FF6600" stroke-width="1.8"/>
<path d="M247.797 316.461H251.685V320.35" stroke="#FF6600" stroke-width="1.8"/>
<path d="M251.685 323.684V327.573H247.797" stroke="#FF6600" stroke-width="1.8"/>
<path d="M244.467 327.573H240.578V323.684" stroke="#FF6600" stroke-width="1.8"/>
</g>
<g opacity="0.85">
<path d="M366.491 528.116H362.047V532.561H366.491V528.116Z" fill="#FF6600"/>
<path d="M358.711 528.671V524.782H362.599" stroke="#FF6600" stroke-width="1.8"/>
<path d="M365.93 524.782H369.818V528.671" stroke="#FF6600" stroke-width="1.8"/>
<path d="M369.818 532.005V535.894H365.93" stroke="#FF6600" stroke-width="1.8"/>
<path d="M362.599 535.894H358.711V532.005" stroke="#FF6600" stroke-width="1.8"/>
</g>
<g opacity="0.85">
<path d="M341.991 461.186H337.547V465.63H341.991V461.186Z" fill="#FF6600"/>
<path d="M334.211 461.741V457.852H338.099" stroke="#FF6600" stroke-width="1.8"/>
<path d="M341.43 457.852H345.318V461.741" stroke="#FF6600" stroke-width="1.8"/>
<path d="M345.318 465.074V468.963H341.43" stroke="#FF6600" stroke-width="1.8"/>
<path d="M338.099 468.963H334.211V465.074" stroke="#FF6600" stroke-width="1.8"/>
</g>
<g opacity="0.85">
<path d="M329.155 430.748H324.711V435.193H329.155V430.748Z" fill="#FF6600"/>
<path d="M321.375 431.303V427.414H325.264" stroke="#FF6600" stroke-width="1.8"/>
<path d="M328.594 427.414H332.482V431.303" stroke="#FF6600" stroke-width="1.8"/>
<path d="M332.482 434.637V438.526H328.594" stroke="#FF6600" stroke-width="1.8"/>
<path d="M325.264 438.526H321.375V434.637" stroke="#FF6600" stroke-width="1.8"/>
</g>
<g opacity="0.85">
<path d="M312.71 395.634H308.266V400.079H312.71V395.634Z" fill="#FF6600"/>
<path d="M304.93 396.189V392.3H308.818" stroke="#FF6600" stroke-width="1.8"/>
<path d="M312.148 392.3H316.037V396.189" stroke="#FF6600" stroke-width="1.8"/>
<path d="M316.037 399.522V403.412H312.148" stroke="#FF6600" stroke-width="1.8"/>
<path d="M308.818 403.412H304.93V399.522" stroke="#FF6600" stroke-width="1.8"/>
</g>
<g opacity="0.85">
<path d="M400.577 515.412H396.133V519.857H400.577V515.412Z" fill="#FF6600"/>
<path d="M392.797 515.967V512.078H396.685" stroke="#FF6600" stroke-width="1.8"/>
<path d="M400.016 512.078H403.904V515.967" stroke="#FF6600" stroke-width="1.8"/>
<path d="M403.904 519.301V523.19H400.016" stroke="#FF6600" stroke-width="1.8"/>
<path d="M396.685 523.19H392.797V519.301" stroke="#FF6600" stroke-width="1.8"/>
</g>
<g opacity="0.85">
<path d="M389.382 483.558H384.938V488.002H389.382V483.558Z" fill="#FF6600"/>
<path d="M381.602 484.113V480.224H385.49" stroke="#FF6600" stroke-width="1.8"/>
<path d="M388.82 480.224H392.709V484.113" stroke="#FF6600" stroke-width="1.8"/>
<path d="M392.709 487.446V491.335H388.82" stroke="#FF6600" stroke-width="1.8"/>
<path d="M385.49 491.335H381.602V487.446" stroke="#FF6600" stroke-width="1.8"/>
</g>
<g opacity="0.85">
<path d="M320.264 316.238H315.82V320.683H320.264V316.238Z" fill="#FF6600"/>
<path d="M312.484 316.793V312.904H316.373" stroke="#FF6600" stroke-width="1.8"/>
<path d="M319.703 312.904H323.592V316.793" stroke="#FF6600" stroke-width="1.8"/>
<path d="M323.592 320.127V324.016H319.703" stroke="#FF6600" stroke-width="1.8"/>
<path d="M316.373 324.016H312.484V320.127" stroke="#FF6600" stroke-width="1.8"/>
</g>
<g opacity="0.85">
<path d="M281.991 224.546H277.547V228.991H281.991V224.546Z" fill="#FF6600"/>
<path d="M274.211 225.101V221.212H278.099" stroke="#FF6600" stroke-width="1.8"/>
<path d="M281.43 221.212H285.318V225.101" stroke="#FF6600" stroke-width="1.8"/>
<path d="M285.318 228.435V232.324H281.43" stroke="#FF6600" stroke-width="1.8"/>
<path d="M278.099 232.324H274.211V228.435" stroke="#FF6600" stroke-width="1.8"/>
</g>
<g opacity="0.85">
<path d="M424.006 506.227H419.562V510.671H424.006V506.227Z" fill="#FF6600"/>
<path d="M416.227 506.782V502.893H420.115" stroke="#FF6600" stroke-width="1.8"/>
<path d="M423.445 502.893H427.334V506.782" stroke="#FF6600" stroke-width="1.8"/>
<path d="M427.334 510.115V514.004H423.445" stroke="#FF6600" stroke-width="1.8"/>
<path d="M420.115 514.004H416.227V510.115" stroke="#FF6600" stroke-width="1.8"/>
</g>
<g opacity="0.85">
<path d="M399.296 431.405H394.852V435.85H399.296V431.405Z" fill="#FF6600"/>
<path d="M391.516 431.961V428.071H395.404" stroke="#FF6600" stroke-width="1.8"/>
<path d="M398.734 428.071H402.623V431.961" stroke="#FF6600" stroke-width="1.8"/>
<path d="M402.623 435.294V439.183H398.734" stroke="#FF6600" stroke-width="1.8"/>
<path d="M395.404 439.183H391.516V435.294" stroke="#FF6600" stroke-width="1.8"/>
</g>
<g opacity="0.85">
<path d="M374.046 374.104H369.602V378.549H374.046V374.104Z" fill="#FF6600"/>
<path d="M366.266 374.66V370.771H370.154" stroke="#FF6600" stroke-width="1.8"/>
<path d="M373.484 370.771H377.373V374.66" stroke="#FF6600" stroke-width="1.8"/>
<path d="M377.373 377.993V381.882H373.484" stroke="#FF6600" stroke-width="1.8"/>
<path d="M370.154 381.882H366.266V377.993" stroke="#FF6600" stroke-width="1.8"/>
</g>
<g opacity="0.85">
<path d="M360.835 342.574H356.391V347.019H360.835V342.574Z" fill="#FF6600"/>
<path d="M353.055 343.129V339.24H356.943" stroke="#FF6600" stroke-width="1.8"/>
<path d="M360.273 339.24H364.162V343.129" stroke="#FF6600" stroke-width="1.8"/>
<path d="M364.162 346.463V350.352H360.273" stroke="#FF6600" stroke-width="1.8"/>
<path d="M356.943 350.352H353.055V346.463" stroke="#FF6600" stroke-width="1.8"/>
</g>
<g opacity="0.85">
<path d="M332.116 274.615H327.672V279.06H332.116V274.615Z" fill="#FF6600"/>
<path d="M324.336 275.17V271.281H328.224" stroke="#FF6600" stroke-width="1.8"/>
<path d="M331.555 271.281H335.443V275.17" stroke="#FF6600" stroke-width="1.8"/>
<path d="M335.443 278.504V282.393H331.555" stroke="#FF6600" stroke-width="1.8"/>
<path d="M328.224 282.393H324.336V278.504" stroke="#FF6600" stroke-width="1.8"/>
</g>
<g opacity="0.85">
<path d="M319.999 243.631H315.555V248.076H319.999V243.631Z" fill="#FF6600"/>
<path d="M312.219 244.186V240.297H316.107" stroke="#FF6600" stroke-width="1.8"/>
<path d="M319.438 240.297H323.326V244.186" stroke="#FF6600" stroke-width="1.8"/>
<path d="M323.326 247.52V251.409H319.438" stroke="#FF6600" stroke-width="1.8"/>
<path d="M316.107 251.409H312.219V247.52" stroke="#FF6600" stroke-width="1.8"/>
</g>
<g opacity="0.85">
<path d="M469.288 521.57H464.844V526.015H469.288V521.57Z" fill="#FF6600"/>
<path d="M461.508 522.125V518.236H465.396" stroke="#FF6600" stroke-width="1.8"/>
<path d="M468.727 518.236H472.615V522.125" stroke="#FF6600" stroke-width="1.8"/>
<path d="M472.615 525.459V529.348H468.727" stroke="#FF6600" stroke-width="1.8"/>
<path d="M465.396 529.348H461.508V525.459" stroke="#FF6600" stroke-width="1.8"/>
</g>
<g opacity="0.85">
<path d="M425.819 418.469H421.375V422.914H425.819V418.469Z" fill="#FF6600"/>
<path d="M418.039 419.024V415.135H421.928" stroke="#FF6600" stroke-width="1.8"/>
<path d="M425.258 415.135H429.146V419.024" stroke="#FF6600" stroke-width="1.8"/>
<path d="M429.146 422.357V426.247H425.258" stroke="#FF6600" stroke-width="1.8"/>
<path d="M421.928 426.247H418.039V422.357" stroke="#FF6600" stroke-width="1.8"/>
</g>
<g opacity="0.85">
<path d="M420.499 386.967H416.055V391.412H420.499V386.967Z" fill="#FF6600"/>
<path d="M412.719 387.522V383.633H416.607" stroke="#FF6600" stroke-width="1.8"/>
<path d="M419.938 383.633H423.826V387.522" stroke="#FF6600" stroke-width="1.8"/>
<path d="M423.826 390.855V394.745H419.938" stroke="#FF6600" stroke-width="1.8"/>
<path d="M416.607 394.745H412.719V390.855" stroke="#FF6600" stroke-width="1.8"/>
</g>
<g opacity="0.85">
<path d="M402.413 356.575H397.969V361.02H402.413V356.575Z" fill="#FF6600"/>
<path d="M394.633 357.13V353.241H398.521" stroke="#FF6600" stroke-width="1.8"/>
<path d="M401.852 353.241H405.74V357.13" stroke="#FF6600" stroke-width="1.8"/>
<path d="M405.74 360.464V364.353H401.852" stroke="#FF6600" stroke-width="1.8"/>
<path d="M398.521 364.353H394.633V360.464" stroke="#FF6600" stroke-width="1.8"/>
</g>
<g opacity="0.85">
<path d="M367.741 259.086H363.297V263.531H367.741V259.086Z" fill="#FF6600"/>
<path d="M359.961 259.641V255.752H363.849" stroke="#FF6600" stroke-width="1.8"/>
<path d="M367.18 255.752H371.068V259.641" stroke="#FF6600" stroke-width="1.8"/>
<path d="M371.068 262.975V266.864H367.18" stroke="#FF6600" stroke-width="1.8"/>
<path d="M363.849 266.864H359.961V262.975" stroke="#FF6600" stroke-width="1.8"/>
</g>
<g opacity="0.85">
<path d="M323.553 174.329H319.109V178.774H323.553V174.329Z" fill="#FF6600"/>
<path d="M315.773 174.884V170.995H319.662" stroke="#FF6600" stroke-width="1.8"/>
<path d="M322.992 170.995H326.881V174.884" stroke="#FF6600" stroke-width="1.8"/>
<path d="M326.881 178.218V182.107H322.992" stroke="#FF6600" stroke-width="1.8"/>
<path d="M319.662 182.107H315.773V178.218" stroke="#FF6600" stroke-width="1.8"/>
</g>
<g opacity="0.85">
<path d="M528.077 574.444H523.633V578.889H528.077V574.444Z" fill="#FF6600"/>
<path d="M520.297 575V571.11H524.185" stroke="#FF6600" stroke-width="1.8"/>
<path d="M527.516 571.11H531.404V575" stroke="#FF6600" stroke-width="1.8"/>
<path d="M531.404 578.333V582.222H527.516" stroke="#FF6600" stroke-width="1.8"/>
<path d="M524.185 582.222H520.297V578.333" stroke="#FF6600" stroke-width="1.8"/>
</g>
<g opacity="0.85">
<path d="M494.35 505.355H489.906V509.8H494.35V505.355Z" fill="#FF6600"/>
<path d="M486.57 505.911V502.021H490.459" stroke="#FF6600" stroke-width="1.8"/>
<path d="M493.789 502.021H497.678V505.911" stroke="#FF6600" stroke-width="1.8"/>
<path d="M497.678 509.244V513.133H493.789" stroke="#FF6600" stroke-width="1.8"/>
<path d="M490.459 513.133H486.57V509.244" stroke="#FF6600" stroke-width="1.8"/>
</g>
<g opacity="0.85">
<path d="M485.749 467.01H481.305V471.455H485.749V467.01Z" fill="#FF6600"/>
<path d="M477.969 467.565V463.676H481.857" stroke="#FF6600" stroke-width="1.8"/>
<path d="M485.188 463.676H489.076V467.565" stroke="#FF6600" stroke-width="1.8"/>
<path d="M489.076 470.898V474.788H485.188" stroke="#FF6600" stroke-width="1.8"/>
<path d="M481.857 474.788H477.969V470.898" stroke="#FF6600" stroke-width="1.8"/>
</g>
<g opacity="0.85">
<path d="M469.311 441.73H464.867V446.175H469.311V441.73Z" fill="#FF6600"/>
<path d="M461.531 442.286V438.396H465.42" stroke="#FF6600" stroke-width="1.8"/>
<path d="M468.75 438.396H472.639V442.286" stroke="#FF6600" stroke-width="1.8"/>
<path d="M472.639 445.619V449.508H468.75" stroke="#FF6600" stroke-width="1.8"/>
<path d="M465.42 449.508H461.531V445.619" stroke="#FF6600" stroke-width="1.8"/>
</g>
<g opacity="0.85">
<path d="M462.007 402.885H457.562V407.33H462.007V402.885Z" fill="#FF6600"/>
<path d="M454.227 403.44V399.551H458.115" stroke="#FF6600" stroke-width="1.8"/>
<path d="M461.445 399.551H465.334V403.44" stroke="#FF6600" stroke-width="1.8"/>
<path d="M465.334 406.773V410.663H461.445" stroke="#FF6600" stroke-width="1.8"/>
<path d="M458.115 410.663H454.227V406.773" stroke="#FF6600" stroke-width="1.8"/>
</g>
<g opacity="0.85">
<path d="M409.928 283.561H405.484V288.005H409.928V283.561Z" fill="#FF6600"/>
<path d="M402.148 284.116V280.227H406.037" stroke="#FF6600" stroke-width="1.8"/>
<path d="M409.367 280.227H413.256V284.116" stroke="#FF6600" stroke-width="1.8"/>
<path d="M413.256 287.449V291.338H409.367" stroke="#FF6600" stroke-width="1.8"/>
<path d="M406.037 291.338H402.148V287.449" stroke="#FF6600" stroke-width="1.8"/>
</g>
<g opacity="0.85">
<path d="M367.819 183.857H363.375V188.302H367.819V183.857Z" fill="#FF6600"/>
<path d="M360.039 184.413V180.523H363.928" stroke="#FF6600" stroke-width="1.8"/>
<path d="M367.258 180.523H371.146V184.413" stroke="#FF6600" stroke-width="1.8"/>
<path d="M371.146 187.746V191.635H367.258" stroke="#FF6600" stroke-width="1.8"/>
<path d="M363.928 191.635H360.039V187.746" stroke="#FF6600" stroke-width="1.8"/>
</g>
<g opacity="0.85">
<path d="M594.163 660.858H589.719V665.303H594.163V660.858Z" fill="#FF6600"/>
<path d="M586.383 661.414V657.524H590.271" stroke="#FF6600" stroke-width="1.8"/>
<path d="M593.602 657.524H597.49V661.414" stroke="#FF6600" stroke-width="1.8"/>
<path d="M597.49 664.747V668.636H593.602" stroke="#FF6600" stroke-width="1.8"/>
<path d="M590.271 668.636H586.383V664.747" stroke="#FF6600" stroke-width="1.8"/>
</g>
<g opacity="0.85">
<path d="M531.21 492.049H526.766V496.494H531.21V492.049Z" fill="#FF6600"/>
<path d="M523.43 492.604V488.715H527.318" stroke="#FF6600" stroke-width="1.8"/>
<path d="M530.648 488.715H534.537V492.604" stroke="#FF6600" stroke-width="1.8"/>
<path d="M534.537 495.938V499.827H530.648" stroke="#FF6600" stroke-width="1.8"/>
<path d="M527.318 499.827H523.43V495.938" stroke="#FF6600" stroke-width="1.8"/>
</g>
<g opacity="0.85">
<path d="M492.155 392.958H487.711V397.403H492.155V392.958Z" fill="#FF6600"/>
<path d="M484.375 393.513V389.624H488.264" stroke="#FF6600" stroke-width="1.8"/>
<path d="M491.594 389.624H495.482V393.513" stroke="#FF6600" stroke-width="1.8"/>
<path d="M495.482 396.847V400.736H491.594" stroke="#FF6600" stroke-width="1.8"/>
<path d="M488.264 400.736H484.375V396.847" stroke="#FF6600" stroke-width="1.8"/>
</g>
<g opacity="0.85">
<path d="M473.428 354.788H468.984V359.233H473.428V354.788Z" fill="#FF6600"/>
<path d="M465.648 355.343V351.454H469.537" stroke="#FF6600" stroke-width="1.8"/>
<path d="M472.867 351.454H476.756V355.343" stroke="#FF6600" stroke-width="1.8"/>
<path d="M476.756 358.677V362.566H472.867" stroke="#FF6600" stroke-width="1.8"/>
<path d="M469.537 362.566H465.648V358.677" stroke="#FF6600" stroke-width="1.8"/>
</g>
<g opacity="0.85">
<path d="M448.155 297.839H443.711V302.284H448.155V297.839Z" fill="#FF6600"/>
<path d="M440.375 298.394V294.505H444.264" stroke="#FF6600" stroke-width="1.8"/>
<path d="M447.594 294.505H451.482V298.394" stroke="#FF6600" stroke-width="1.8"/>
<path d="M451.482 301.728V305.617H447.594" stroke="#FF6600" stroke-width="1.8"/>
<path d="M444.264 305.617H440.375V301.728" stroke="#FF6600" stroke-width="1.8"/>
</g>
<g opacity="0.85">
<path d="M398.046 175.329H393.602V179.774H398.046V175.329Z" fill="#FF6600"/>
<path d="M390.266 175.884V171.995H394.154" stroke="#FF6600" stroke-width="1.8"/>
<path d="M397.484 171.995H401.373V175.884" stroke="#FF6600" stroke-width="1.8"/>
<path d="M401.373 179.218V183.107H397.484" stroke="#FF6600" stroke-width="1.8"/>
<path d="M394.154 183.107H390.266V179.218" stroke="#FF6600" stroke-width="1.8"/>
</g>
<g opacity="0.85">
<path d="M601.186 608.234H596.742V612.679H601.186V608.234Z" fill="#FF6600"/>
<path d="M593.406 608.79V604.9H597.295" stroke="#FF6600" stroke-width="1.8"/>
<path d="M600.625 604.9H604.514V608.79" stroke="#FF6600" stroke-width="1.8"/>
<path d="M604.514 612.123V616.012H600.625" stroke="#FF6600" stroke-width="1.8"/>
<path d="M597.295 616.012H593.406V612.123" stroke="#FF6600" stroke-width="1.8"/>
</g>
<g opacity="0.85">
<path d="M589.96 573.944H585.516V578.389H589.96V573.944Z" fill="#FF6600"/>
<path d="M582.18 574.5V570.61H586.068" stroke="#FF6600" stroke-width="1.8"/>
<path d="M589.398 570.61H593.287V574.5" stroke="#FF6600" stroke-width="1.8"/>
<path d="M593.287 577.833V581.722H589.398" stroke="#FF6600" stroke-width="1.8"/>
<path d="M586.068 581.722H582.18V577.833" stroke="#FF6600" stroke-width="1.8"/>
</g>
<g opacity="0.85">
<path d="M576.585 543.998H572.141V548.443H576.585V543.998Z" fill="#FF6600"/>
<path d="M568.805 544.553V540.664H572.693" stroke="#FF6600" stroke-width="1.8"/>
<path d="M576.023 540.664H579.912V544.553" stroke="#FF6600" stroke-width="1.8"/>
<path d="M579.912 547.887V551.776H576.023" stroke="#FF6600" stroke-width="1.8"/>
<path d="M572.693 551.776H568.805V547.887" stroke="#FF6600" stroke-width="1.8"/>
</g>
<g opacity="0.85">
<path d="M541.428 438.832H536.984V443.277H541.428V438.832Z" fill="#FF6600"/>
<path d="M533.648 439.387V435.498H537.537" stroke="#FF6600" stroke-width="1.8"/>
<path d="M540.867 435.498H544.756V439.387" stroke="#FF6600" stroke-width="1.8"/>
<path d="M544.756 442.721V446.61H540.867" stroke="#FF6600" stroke-width="1.8"/>
<path d="M537.537 446.61H533.648V442.721" stroke="#FF6600" stroke-width="1.8"/>
</g>
<g opacity="0.85">
<path d="M532.569 412.719H528.125V417.164H532.569V412.719Z" fill="#FF6600"/>
<path d="M524.789 413.274V409.385H528.678" stroke="#FF6600" stroke-width="1.8"/>
<path d="M532.008 409.385H535.896V413.274" stroke="#FF6600" stroke-width="1.8"/>
<path d="M535.896 416.607V420.497H532.008" stroke="#FF6600" stroke-width="1.8"/>
<path d="M528.678 420.497H524.789V416.607" stroke="#FF6600" stroke-width="1.8"/>
</g>
<g opacity="0.85">
<path d="M500.639 350.482H496.195V354.927H500.639V350.482Z" fill="#FF6600"/>
<path d="M492.859 351.038V347.148H496.748" stroke="#FF6600" stroke-width="1.8"/>
<path d="M500.078 347.148H503.967V351.038" stroke="#FF6600" stroke-width="1.8"/>
<path d="M503.967 354.371V358.26H500.078" stroke="#FF6600" stroke-width="1.8"/>
<path d="M496.748 358.26H492.859V354.371" stroke="#FF6600" stroke-width="1.8"/>
</g>
<g opacity="0.85">
<path d="M438.78 195.424H434.336V199.869H438.78V195.424Z" fill="#FF6600"/>
<path d="M431 195.979V192.09H434.889" stroke="#FF6600" stroke-width="1.8"/>
<path d="M438.219 192.09H442.107V195.979" stroke="#FF6600" stroke-width="1.8"/>
<path d="M442.107 199.312V203.202H438.219" stroke="#FF6600" stroke-width="1.8"/>
<path d="M434.889 203.202H431V199.312" stroke="#FF6600" stroke-width="1.8"/>
</g>
<g opacity="0.85">
<path d="M428.514 164.152H424.07V168.597H428.514V164.152Z" fill="#FF6600"/>
<path d="M420.734 164.708V160.818H424.623" stroke="#FF6600" stroke-width="1.8"/>
<path d="M427.953 160.818H431.842V164.708" stroke="#FF6600" stroke-width="1.8"/>
<path d="M431.842 168.041V171.93H427.953" stroke="#FF6600" stroke-width="1.8"/>
<path d="M424.623 171.93H420.734V168.041" stroke="#FF6600" stroke-width="1.8"/>
</g>
<g opacity="0.85">
<path d="M672.499 696.464H668.055V700.909H672.499V696.464Z" fill="#FF6600"/>
<path d="M664.719 697.019V693.13H668.607" stroke="#FF6600" stroke-width="1.8"/>
<path d="M671.938 693.13H675.826V697.019" stroke="#FF6600" stroke-width="1.8"/>
<path d="M675.826 700.353V704.242H671.938" stroke="#FF6600" stroke-width="1.8"/>
<path d="M668.607 704.242H664.719V700.353" stroke="#FF6600" stroke-width="1.8"/>
</g>
<g opacity="0.85">
<path d="M659.6 671.063H655.156V675.508H659.6V671.063Z" fill="#FF6600"/>
<path d="M651.82 671.619V667.729H655.709" stroke="#FF6600" stroke-width="1.8"/>
<path d="M659.039 667.729H662.928V671.619" stroke="#FF6600" stroke-width="1.8"/>
<path d="M662.928 674.952V678.841H659.039" stroke="#FF6600" stroke-width="1.8"/>
<path d="M655.709 678.841H651.82V674.952" stroke="#FF6600" stroke-width="1.8"/>
</g>
<g opacity="0.85">
<path d="M645.288 632.468H640.844V636.913H645.288V632.468Z" fill="#FF6600"/>
<path d="M637.508 633.023V629.134H641.396" stroke="#FF6600" stroke-width="1.8"/>
<path d="M644.727 629.134H648.615V633.023" stroke="#FF6600" stroke-width="1.8"/>
<path d="M648.615 636.356V640.246H644.727" stroke="#FF6600" stroke-width="1.8"/>
<path d="M641.396 640.246H637.508V636.356" stroke="#FF6600" stroke-width="1.8"/>
</g>
<g opacity="0.85">
<path d="M584.881 461.565H580.438V466.01H584.881V461.565Z" fill="#FF6600"/>
<path d="M577.102 462.121V458.231H580.99" stroke="#FF6600" stroke-width="1.8"/>
<path d="M584.32 458.231H588.209V462.121" stroke="#FF6600" stroke-width="1.8"/>
<path d="M588.209 465.454V469.343H584.32" stroke="#FF6600" stroke-width="1.8"/>
<path d="M580.99 469.343H577.102V465.454" stroke="#FF6600" stroke-width="1.8"/>
</g>
<g opacity="0.85">
<path d="M555.506 392.43H551.062V396.874H555.506V392.43Z" fill="#FF6600"/>
<path d="M547.727 392.985V389.096H551.615" stroke="#FF6600" stroke-width="1.8"/>
<path d="M554.945 389.096H558.834V392.985" stroke="#FF6600" stroke-width="1.8"/>
<path d="M558.834 396.318V400.208H554.945" stroke="#FF6600" stroke-width="1.8"/>
<path d="M551.615 400.208H547.727V396.318" stroke="#FF6600" stroke-width="1.8"/>
</g>
<g opacity="0.85">
<path d="M531.928 336.055H527.484V340.499H531.928V336.055Z" fill="#FF6600"/>
<path d="M524.148 336.61V332.721H528.037" stroke="#FF6600" stroke-width="1.8"/>
<path d="M531.367 332.721H535.256V336.61" stroke="#FF6600" stroke-width="1.8"/>
<path d="M535.256 339.943V343.833H531.367" stroke="#FF6600" stroke-width="1.8"/>
<path d="M528.037 343.833H524.148V339.943" stroke="#FF6600" stroke-width="1.8"/>
</g>
<g opacity="0.85">
<path d="M520.803 295.228H516.359V299.672H520.803V295.228Z" fill="#FF6600"/>
<path d="M513.023 295.783V291.894H516.912" stroke="#FF6600" stroke-width="1.8"/>
<path d="M520.242 291.894H524.131V295.783" stroke="#FF6600" stroke-width="1.8"/>
<path d="M524.131 299.116V303.005H520.242" stroke="#FF6600" stroke-width="1.8"/>
<path d="M516.912 303.005H513.023V299.116" stroke="#FF6600" stroke-width="1.8"/>
</g>
<g opacity="0.85">
<path d="M509.686 266.809H505.242V271.253H509.686V266.809Z" fill="#FF6600"/>
<path d="M501.906 267.364V263.475H505.795" stroke="#FF6600" stroke-width="1.8"/>
<path d="M509.125 263.475H513.014V267.364" stroke="#FF6600" stroke-width="1.8"/>
<path d="M513.014 270.697V274.586H509.125" stroke="#FF6600" stroke-width="1.8"/>
<path d="M505.795 274.586H501.906V270.697" stroke="#FF6600" stroke-width="1.8"/>
</g>
<g opacity="0.85">
<path d="M458.061 147.901H453.617V152.346H458.061V147.901Z" fill="#FF6600"/>
<path d="M450.281 148.457V144.567H454.17" stroke="#FF6600" stroke-width="1.8"/>
<path d="M457.5 144.567H461.389V148.457" stroke="#FF6600" stroke-width="1.8"/>
<path d="M461.389 151.79V155.679H457.5" stroke="#FF6600" stroke-width="1.8"/>
<path d="M454.17 155.679H450.281V151.79" stroke="#FF6600" stroke-width="1.8"/>
</g>
<g opacity="0.85">
<path d="M443.506 118.26H439.062V122.705H443.506V118.26Z" fill="#FF6600"/>
<path d="M435.727 118.815V114.926H439.615" stroke="#FF6600" stroke-width="1.8"/>
<path d="M442.945 114.926H446.834V118.815" stroke="#FF6600" stroke-width="1.8"/>
<path d="M446.834 122.148V126.038H442.945" stroke="#FF6600" stroke-width="1.8"/>
<path d="M439.615 126.038H435.727V122.148" stroke="#FF6600" stroke-width="1.8"/>
</g>
<g opacity="0.85">
<path d="M714.522 729.614H710.078V734.059H714.522V729.614Z" fill="#FF6600"/>
<path d="M706.742 730.169V726.28H710.631" stroke="#FF6600" stroke-width="1.8"/>
<path d="M713.961 726.28H717.849V730.169" stroke="#FF6600" stroke-width="1.8"/>
<path d="M717.849 733.503V737.392H713.961" stroke="#FF6600" stroke-width="1.8"/>
<path d="M710.631 737.392H706.742V733.503" stroke="#FF6600" stroke-width="1.8"/>
</g>
<g opacity="0.85">
<path d="M676.171 615.717H671.727V620.162H676.171V615.717Z" fill="#FF6600"/>
<path d="M668.391 616.272V612.383H672.279" stroke="#FF6600" stroke-width="1.8"/>
<path d="M675.609 612.383H679.498V616.272" stroke="#FF6600" stroke-width="1.8"/>
<path d="M679.498 619.605V623.495H675.609" stroke="#FF6600" stroke-width="1.8"/>
<path d="M672.279 623.495H668.391V619.605" stroke="#FF6600" stroke-width="1.8"/>
</g>
<g opacity="0.85">
<path d="M665.6 577.343H661.156V581.788H665.6V577.343Z" fill="#FF6600"/>
<path d="M657.82 577.898V574.009H661.709" stroke="#FF6600" stroke-width="1.8"/>
<path d="M665.039 574.009H668.928V577.898" stroke="#FF6600" stroke-width="1.8"/>
<path d="M668.928 581.231V585.121H665.039" stroke="#FF6600" stroke-width="1.8"/>
<path d="M661.709 585.121H657.82V581.231" stroke="#FF6600" stroke-width="1.8"/>
</g>
<g opacity="0.85">
<path d="M640.241 515.439H635.797V519.884H640.241V515.439Z" fill="#FF6600"/>
<path d="M632.461 515.995V512.105H636.349" stroke="#FF6600" stroke-width="1.8"/>
<path d="M639.68 512.105H643.568V515.995" stroke="#FF6600" stroke-width="1.8"/>
<path d="M643.568 519.328V523.217H639.68" stroke="#FF6600" stroke-width="1.8"/>
<path d="M636.349 523.217H632.461V519.328" stroke="#FF6600" stroke-width="1.8"/>
</g>
<g opacity="0.85">
<path d="M608.506 444.758H604.062V449.203H608.506V444.758Z" fill="#FF6600"/>
<path d="M600.727 445.313V441.424H604.615" stroke="#FF6600" stroke-width="1.8"/>
<path d="M607.945 441.424H611.834V445.313" stroke="#FF6600" stroke-width="1.8"/>
<path d="M611.834 448.646V452.536H607.945" stroke="#FF6600" stroke-width="1.8"/>
<path d="M604.615 452.536H600.727V448.646" stroke="#FF6600" stroke-width="1.8"/>
</g>
<g opacity="0.85">
<path d="M579.952 352.307H575.508V356.751H579.952V352.307Z" fill="#FF6600"/>
<path d="M572.172 352.862V348.973H576.06" stroke="#FF6600" stroke-width="1.8"/>
<path d="M579.391 348.973H583.279V352.862" stroke="#FF6600" stroke-width="1.8"/>
<path d="M583.279 356.195V360.084H579.391" stroke="#FF6600" stroke-width="1.8"/>
<path d="M576.06 360.084H572.172V356.195" stroke="#FF6600" stroke-width="1.8"/>
</g>
<g opacity="0.85">
<path d="M549.507 284.912H545.062V289.357H549.507V284.912Z" fill="#FF6600"/>
<path d="M541.727 285.467V281.578H545.615" stroke="#FF6600" stroke-width="1.8"/>
<path d="M548.945 281.578H552.834V285.467" stroke="#FF6600" stroke-width="1.8"/>
<path d="M552.834 288.801V292.69H548.945" stroke="#FF6600" stroke-width="1.8"/>
<path d="M545.615 292.69H541.727V288.801" stroke="#FF6600" stroke-width="1.8"/>
</g>
<g opacity="0.85">
<path d="M535.85 252.799H531.406V257.244H535.85V252.799Z" fill="#FF6600"/>
<path d="M528.07 253.354V249.465H531.959" stroke="#FF6600" stroke-width="1.8"/>
<path d="M535.289 249.465H539.178V253.354" stroke="#FF6600" stroke-width="1.8"/>
<path d="M539.178 256.688V260.577H535.289" stroke="#FF6600" stroke-width="1.8"/>
<path d="M531.959 260.577H528.07V256.688" stroke="#FF6600" stroke-width="1.8"/>
</g>
<g opacity="0.85">
<path d="M527.053 224.963H522.609V229.408H527.053V224.963Z" fill="#FF6600"/>
<path d="M519.273 225.518V221.629H523.162" stroke="#FF6600" stroke-width="1.8"/>
<path d="M526.492 221.629H530.381V225.518" stroke="#FF6600" stroke-width="1.8"/>
<path d="M530.381 228.852V232.741H526.492" stroke="#FF6600" stroke-width="1.8"/>
<path d="M523.162 232.741H519.273V228.852" stroke="#FF6600" stroke-width="1.8"/>
</g>
<g opacity="0.85">
<path d="M510.217 190.84H505.773V195.285H510.217V190.84Z" fill="#FF6600"/>
<path d="M502.438 191.395V187.506H506.326" stroke="#FF6600" stroke-width="1.8"/>
<path d="M509.656 187.506H513.545V191.395" stroke="#FF6600" stroke-width="1.8"/>
<path d="M513.545 194.729V198.618H509.656" stroke="#FF6600" stroke-width="1.8"/>
<path d="M506.326 198.618H502.438V194.729" stroke="#FF6600" stroke-width="1.8"/>
</g>
<g opacity="0.85">
<path d="M741.507 709.104H737.062V713.548H741.507V709.104Z" fill="#FF6600"/>
<path d="M733.727 709.659V705.77H737.615" stroke="#FF6600" stroke-width="1.8"/>
<path d="M740.945 705.77H744.834V709.659" stroke="#FF6600" stroke-width="1.8"/>
<path d="M744.834 712.992V716.881H740.945" stroke="#FF6600" stroke-width="1.8"/>
<path d="M737.615 716.881H733.727V712.992" stroke="#FF6600" stroke-width="1.8"/>
</g>
<g opacity="0.85">
<path d="M731.421 673.518H726.977V677.962H731.421V673.518Z" fill="#FF6600"/>
<path d="M723.641 674.073V670.184H727.529" stroke="#FF6600" stroke-width="1.8"/>
<path d="M730.859 670.184H734.748V674.073" stroke="#FF6600" stroke-width="1.8"/>
<path d="M734.748 677.406V681.295H730.859" stroke="#FF6600" stroke-width="1.8"/>
<path d="M727.529 681.295H723.641V677.406" stroke="#FF6600" stroke-width="1.8"/>
</g>
<g opacity="0.85">
<path d="M629.381 395.356H624.938V399.801H629.381V395.356Z" fill="#FF6600"/>
<path d="M621.602 395.912V392.022H625.49" stroke="#FF6600" stroke-width="1.8"/>
<path d="M628.82 392.022H632.709V395.912" stroke="#FF6600" stroke-width="1.8"/>
<path d="M632.709 399.245V403.134H628.82" stroke="#FF6600" stroke-width="1.8"/>
<path d="M625.49 403.134H621.602V399.245" stroke="#FF6600" stroke-width="1.8"/>
</g>
<g opacity="0.85">
<path d="M601.28 331.703H596.836V336.148H601.28V331.703Z" fill="#FF6600"/>
<path d="M593.5 332.258V328.369H597.389" stroke="#FF6600" stroke-width="1.8"/>
<path d="M600.719 328.369H604.607V332.258" stroke="#FF6600" stroke-width="1.8"/>
<path d="M604.607 335.592V339.481H600.719" stroke="#FF6600" stroke-width="1.8"/>
<path d="M597.389 339.481H593.5V335.592" stroke="#FF6600" stroke-width="1.8"/>
</g>
<g opacity="0.85">
<path d="M595.678 306.914H591.234V311.359H595.678V306.914Z" fill="#FF6600"/>
<path d="M587.898 307.469V303.58H591.787" stroke="#FF6600" stroke-width="1.8"/>
<path d="M595.117 303.58H599.006V307.469" stroke="#FF6600" stroke-width="1.8"/>
<path d="M599.006 310.803V314.692H595.117" stroke="#FF6600" stroke-width="1.8"/>
<path d="M591.787 314.692H587.898V310.803" stroke="#FF6600" stroke-width="1.8"/>
</g>
<g opacity="0.85">
<path d="M566.671 245.446H562.227V249.891H566.671V245.446Z" fill="#FF6600"/>
<path d="M558.891 246.002V242.112H562.779" stroke="#FF6600" stroke-width="1.8"/>
<path d="M566.109 242.112H569.998V246.002" stroke="#FF6600" stroke-width="1.8"/>
<path d="M569.998 249.335V253.224H566.109" stroke="#FF6600" stroke-width="1.8"/>
<path d="M562.779 253.224H558.891V249.335" stroke="#FF6600" stroke-width="1.8"/>
</g>
<g opacity="0.85">
<path d="M554.506 212.786H550.062V217.231H554.506V212.786Z" fill="#FF6600"/>
<path d="M546.727 213.341V209.452H550.615" stroke="#FF6600" stroke-width="1.8"/>
<path d="M553.945 209.452H557.834V213.341" stroke="#FF6600" stroke-width="1.8"/>
<path d="M557.834 216.675V220.564H553.945" stroke="#FF6600" stroke-width="1.8"/>
<path d="M550.615 220.564H546.727V216.675" stroke="#FF6600" stroke-width="1.8"/>
</g>
<g opacity="0.85">
<path d="M534.413 179.506H529.969V183.951H534.413V179.506Z" fill="#FF6600"/>
<path d="M526.633 180.061V176.172H530.521" stroke="#FF6600" stroke-width="1.8"/>
<path d="M533.852 176.172H537.74V180.061" stroke="#FF6600" stroke-width="1.8"/>
<path d="M537.74 183.395V187.284H533.852" stroke="#FF6600" stroke-width="1.8"/>
<path d="M530.521 187.284H526.633V183.395" stroke="#FF6600" stroke-width="1.8"/>
</g>
<g opacity="0.85">
<path d="M790.006 720.012H785.562V724.457H790.006V720.012Z" fill="#FF6600"/>
<path d="M782.227 720.567V716.678H786.115" stroke="#FF6600" stroke-width="1.8"/>
<path d="M789.445 716.678H793.334V720.567" stroke="#FF6600" stroke-width="1.8"/>
<path d="M793.334 723.9V727.79H789.445" stroke="#FF6600" stroke-width="1.8"/>
<path d="M786.115 727.79H782.227V723.9" stroke="#FF6600" stroke-width="1.8"/>
</g>
<g opacity="0.85">
<path d="M778.046 692.76H773.602V697.205H778.046V692.76Z" fill="#FF6600"/>
<path d="M770.266 693.315V689.426H774.154" stroke="#FF6600" stroke-width="1.8"/>
<path d="M777.484 689.426H781.373V693.315" stroke="#FF6600" stroke-width="1.8"/>
<path d="M781.373 696.648V700.538H777.484" stroke="#FF6600" stroke-width="1.8"/>
<path d="M774.154 700.538H770.266V696.648" stroke="#FF6600" stroke-width="1.8"/>
</g>
<g opacity="0.85">
<path d="M734.389 589.529H729.945V593.974H734.389V589.529Z" fill="#FF6600"/>
<path d="M726.609 590.085V586.195H730.498" stroke="#FF6600" stroke-width="1.8"/>
<path d="M733.828 586.195H737.717V590.085" stroke="#FF6600" stroke-width="1.8"/>
<path d="M737.717 593.418V597.307H733.828" stroke="#FF6600" stroke-width="1.8"/>
<path d="M730.498 597.307H726.609V593.418" stroke="#FF6600" stroke-width="1.8"/>
</g>
<g opacity="0.85">
<path d="M719.1 552.202H714.656V556.647H719.1V552.202Z" fill="#FF6600"/>
<path d="M711.32 552.757V548.868H715.209" stroke="#FF6600" stroke-width="1.8"/>
<path d="M718.539 548.868H722.428V552.757" stroke="#FF6600" stroke-width="1.8"/>
<path d="M722.428 556.091V559.98H718.539" stroke="#FF6600" stroke-width="1.8"/>
<path d="M715.209 559.98H711.32V556.091" stroke="#FF6600" stroke-width="1.8"/>
</g>
<g opacity="0.85">
<path d="M710.71 520.302H706.266V524.747H710.71V520.302Z" fill="#FF6600"/>
<path d="M702.93 520.857V516.968H706.818" stroke="#FF6600" stroke-width="1.8"/>
<path d="M710.148 516.968H714.037V520.857" stroke="#FF6600" stroke-width="1.8"/>
<path d="M714.037 524.19V528.08H710.148" stroke="#FF6600" stroke-width="1.8"/>
<path d="M706.818 528.08H702.93V524.19" stroke="#FF6600" stroke-width="1.8"/>
</g>
<g opacity="0.85">
<path d="M695.561 485.808H691.117V490.252H695.561V485.808Z" fill="#FF6600"/>
<path d="M687.781 486.363V482.474H691.67" stroke="#FF6600" stroke-width="1.8"/>
<path d="M695 482.474H698.889V486.363" stroke="#FF6600" stroke-width="1.8"/>
<path d="M698.889 489.696V493.586H695" stroke="#FF6600" stroke-width="1.8"/>
<path d="M691.67 493.586H687.781V489.696" stroke="#FF6600" stroke-width="1.8"/>
</g>
<g opacity="0.85">
<path d="M655.46 387.893H651.016V392.337H655.46V387.893Z" fill="#FF6600"/>
<path d="M647.68 388.448V384.559H651.568" stroke="#FF6600" stroke-width="1.8"/>
<path d="M654.898 384.559H658.787V388.448" stroke="#FF6600" stroke-width="1.8"/>
<path d="M658.787 391.781V395.67H654.898" stroke="#FF6600" stroke-width="1.8"/>
<path d="M651.568 395.67H647.68V391.781" stroke="#FF6600" stroke-width="1.8"/>
</g>
<g opacity="0.85">
<path d="M634.225 316.775H629.781V321.22H634.225V316.775Z" fill="#FF6600"/>
<path d="M626.445 317.331V313.441H630.334" stroke="#FF6600" stroke-width="1.8"/>
<path d="M633.664 313.441H637.553V317.331" stroke="#FF6600" stroke-width="1.8"/>
<path d="M637.553 320.664V324.553H633.664" stroke="#FF6600" stroke-width="1.8"/>
<path d="M630.334 324.553H626.445V320.664" stroke="#FF6600" stroke-width="1.8"/>
</g>
<g opacity="0.85">
<path d="M613.507 288.255H609.062V292.7H613.507V288.255Z" fill="#FF6600"/>
<path d="M605.727 288.81V284.921H609.615" stroke="#FF6600" stroke-width="1.8"/>
<path d="M612.945 284.921H616.834V288.81" stroke="#FF6600" stroke-width="1.8"/>
<path d="M616.834 292.144V296.033H612.945" stroke="#FF6600" stroke-width="1.8"/>
<path d="M609.615 296.033H605.727V292.144" stroke="#FF6600" stroke-width="1.8"/>
</g>
<g opacity="0.85">
<path d="M609.413 254.391H604.969V258.835H609.413V254.391Z" fill="#FF6600"/>
<path d="M601.633 254.946V251.057H605.521" stroke="#FF6600" stroke-width="1.8"/>
<path d="M608.852 251.057H612.74V254.946" stroke="#FF6600" stroke-width="1.8"/>
<path d="M612.74 258.279V262.168H608.852" stroke="#FF6600" stroke-width="1.8"/>
<path d="M605.521 262.168H601.633V258.279" stroke="#FF6600" stroke-width="1.8"/>
</g>
<g opacity="0.85">
<path d="M590.6 225.99H586.156V230.435H590.6V225.99Z" fill="#FF6600"/>
<path d="M582.82 226.545V222.656H586.709" stroke="#FF6600" stroke-width="1.8"/>
<path d="M590.039 222.656H593.928V226.545" stroke="#FF6600" stroke-width="1.8"/>
<path d="M593.928 229.879V233.768H590.039" stroke="#FF6600" stroke-width="1.8"/>
<path d="M586.709 233.768H582.82V229.879" stroke="#FF6600" stroke-width="1.8"/>
</g>
<g opacity="0.85">
<path d="M810.202 706.928H805.758V711.373H810.202V706.928Z" fill="#FF6600"/>
<path d="M802.422 707.483V703.594H806.31" stroke="#FF6600" stroke-width="1.8"/>
<path d="M809.641 703.594H813.529V707.483" stroke="#FF6600" stroke-width="1.8"/>
<path d="M813.529 710.816V714.706H809.641" stroke="#FF6600" stroke-width="1.8"/>
<path d="M806.31 714.706H802.422V710.816" stroke="#FF6600" stroke-width="1.8"/>
</g>
<g opacity="0.85">
<path d="M806.663 671.851H802.219V676.295H806.663V671.851Z" fill="#FF6600"/>
<path d="M798.883 672.406V668.517H802.771" stroke="#FF6600" stroke-width="1.8"/>
<path d="M806.102 668.517H809.99V672.406" stroke="#FF6600" stroke-width="1.8"/>
<path d="M809.99 675.739V679.628H806.102" stroke="#FF6600" stroke-width="1.8"/>
<path d="M802.771 679.628H798.883V675.739" stroke="#FF6600" stroke-width="1.8"/>
</g>
<g opacity="0.85">
<path d="M791.905 638.765H787.461V643.209H791.905V638.765Z" fill="#FF6600"/>
<path d="M784.125 639.32V635.431H788.014" stroke="#FF6600" stroke-width="1.8"/>
<path d="M791.344 635.431H795.232V639.32" stroke="#FF6600" stroke-width="1.8"/>
<path d="M795.232 642.653V646.543H791.344" stroke="#FF6600" stroke-width="1.8"/>
<path d="M788.014 646.543H784.125V642.653" stroke="#FF6600" stroke-width="1.8"/>
</g>
<g opacity="0.85">
<path d="M760.796 569.731H756.352V574.176H760.796V569.731Z" fill="#FF6600"/>
<path d="M753.016 570.287V566.397H756.904" stroke="#FF6600" stroke-width="1.8"/>
<path d="M760.234 566.397H764.123V570.287" stroke="#FF6600" stroke-width="1.8"/>
<path d="M764.123 573.62V577.509H760.234" stroke="#FF6600" stroke-width="1.8"/>
<path d="M756.904 577.509H753.016V573.62" stroke="#FF6600" stroke-width="1.8"/>
</g>
<g opacity="0.85">
<path d="M746.717 533.83H742.273V538.275H746.717V533.83Z" fill="#FF6600"/>
<path d="M738.938 534.385V530.496H742.826" stroke="#FF6600" stroke-width="1.8"/>
<path d="M746.156 530.496H750.045V534.385" stroke="#FF6600" stroke-width="1.8"/>
<path d="M750.045 537.719V541.608H746.156" stroke="#FF6600" stroke-width="1.8"/>
<path d="M742.826 541.608H738.938V537.719" stroke="#FF6600" stroke-width="1.8"/>
</g>
<g opacity="0.85">
<path d="M738.436 506.198H733.992V510.643H738.436V506.198Z" fill="#FF6600"/>
<path d="M730.656 506.753V502.864H734.545" stroke="#FF6600" stroke-width="1.8"/>
<path d="M737.875 502.864H741.764V506.753" stroke="#FF6600" stroke-width="1.8"/>
<path d="M741.764 510.087V513.976H737.875" stroke="#FF6600" stroke-width="1.8"/>
<path d="M734.545 513.976H730.656V510.087" stroke="#FF6600" stroke-width="1.8"/>
</g>
<g opacity="0.85">
<path d="M710.561 436.924H706.117V441.369H710.561V436.924Z" fill="#FF6600"/>
<path d="M702.781 437.479V433.59H706.67" stroke="#FF6600" stroke-width="1.8"/>
<path d="M710 433.59H713.889V437.479" stroke="#FF6600" stroke-width="1.8"/>
<path d="M713.889 440.812V444.702H710" stroke="#FF6600" stroke-width="1.8"/>
<path d="M706.67 444.702H702.781V440.812" stroke="#FF6600" stroke-width="1.8"/>
</g>
<g opacity="0.85">
<path d="M699.967 402.394H695.523V406.838H699.967V402.394Z" fill="#FF6600"/>
<path d="M692.188 402.949V399.06H696.076" stroke="#FF6600" stroke-width="1.8"/>
<path d="M699.406 399.06H703.295V402.949" stroke="#FF6600" stroke-width="1.8"/>
<path d="M703.295 406.282V410.171H699.406" stroke="#FF6600" stroke-width="1.8"/>
<path d="M696.076 410.171H692.188V406.282" stroke="#FF6600" stroke-width="1.8"/>
</g>
<g opacity="0.85">
<path d="M684.499 376.762H680.055V381.207H684.499V376.762Z" fill="#FF6600"/>
<path d="M676.719 377.317V373.428H680.607" stroke="#FF6600" stroke-width="1.8"/>
<path d="M683.938 373.428H687.826V377.317" stroke="#FF6600" stroke-width="1.8"/>
<path d="M687.826 380.65V384.54H683.938" stroke="#FF6600" stroke-width="1.8"/>
<path d="M680.607 384.54H676.719V380.65" stroke="#FF6600" stroke-width="1.8"/>
</g>
<g opacity="0.85">
<path d="M640.585 248.882H636.141V253.327H640.585V248.882Z" fill="#FF6600"/>
<path d="M632.805 249.437V245.548H636.693" stroke="#FF6600" stroke-width="1.8"/>
<path d="M640.023 245.548H643.912V249.437" stroke="#FF6600" stroke-width="1.8"/>
<path d="M643.912 252.771V256.66H640.023" stroke="#FF6600" stroke-width="1.8"/>
<path d="M636.693 256.66H632.805V252.771" stroke="#FF6600" stroke-width="1.8"/>
</g>
<g opacity="0.85">
<path d="M828.569 654.441H824.125V658.886H828.569V654.441Z" fill="#FF6600"/>
<path d="M820.789 654.997V651.107H824.678" stroke="#FF6600" stroke-width="1.8"/>
<path d="M828.008 651.107H831.896V654.997" stroke="#FF6600" stroke-width="1.8"/>
<path d="M831.896 658.33V662.219H828.008" stroke="#FF6600" stroke-width="1.8"/>
<path d="M824.678 662.219H820.789V658.33" stroke="#FF6600" stroke-width="1.8"/>
</g>
<g opacity="0.85">
<path d="M819.733 624.105H815.289V628.55H819.733V624.105Z" fill="#FF6600"/>
<path d="M811.953 624.661V620.771H815.842" stroke="#FF6600" stroke-width="1.8"/>
<path d="M819.172 620.771H823.06V624.661" stroke="#FF6600" stroke-width="1.8"/>
<path d="M823.06 627.994V631.883H819.172" stroke="#FF6600" stroke-width="1.8"/>
<path d="M815.842 631.883H811.953V627.994" stroke="#FF6600" stroke-width="1.8"/>
</g>
<g opacity="0.85">
<path d="M808.046 586.084H803.602V590.529H808.046V586.084Z" fill="#FF6600"/>
<path d="M800.266 586.639V582.75H804.154" stroke="#FF6600" stroke-width="1.8"/>
<path d="M807.484 582.75H811.373V586.639" stroke="#FF6600" stroke-width="1.8"/>
<path d="M811.373 589.973V593.862H807.484" stroke="#FF6600" stroke-width="1.8"/>
<path d="M804.154 593.862H800.266V589.973" stroke="#FF6600" stroke-width="1.8"/>
</g>
<g opacity="0.85">
<path d="M793.702 546.905H789.258V551.35H793.702V546.905Z" fill="#FF6600"/>
<path d="M785.922 547.461V543.571H789.81" stroke="#FF6600" stroke-width="1.8"/>
<path d="M793.141 543.571H797.029V547.461" stroke="#FF6600" stroke-width="1.8"/>
<path d="M797.029 550.794V554.683H793.141" stroke="#FF6600" stroke-width="1.8"/>
<path d="M789.81 554.683H785.922V550.794" stroke="#FF6600" stroke-width="1.8"/>
</g>
<g opacity="0.85">
<path d="M751.014 452.064H746.57V456.509H751.014V452.064Z" fill="#FF6600"/>
<path d="M743.234 452.62V448.73H747.123" stroke="#FF6600" stroke-width="1.8"/>
<path d="M750.453 448.73H754.342V452.62" stroke="#FF6600" stroke-width="1.8"/>
<path d="M754.342 455.953V459.842H750.453" stroke="#FF6600" stroke-width="1.8"/>
<path d="M747.123 459.842H743.234V455.953" stroke="#FF6600" stroke-width="1.8"/>
</g>
<g opacity="0.85">
<path d="M742.717 425.441H738.273V429.886H742.717V425.441Z" fill="#FF6600"/>
<path d="M734.938 425.997V422.107H738.826" stroke="#FF6600" stroke-width="1.8"/>
<path d="M742.156 422.107H746.045V425.997" stroke="#FF6600" stroke-width="1.8"/>
<path d="M746.045 429.33V433.219H742.156" stroke="#FF6600" stroke-width="1.8"/>
<path d="M738.826 433.219H734.938V429.33" stroke="#FF6600" stroke-width="1.8"/>
</g>
<g opacity="0.85">
<path d="M730.053 384.753H725.609V389.198H730.053V384.753Z" fill="#FF6600"/>
<path d="M722.273 385.308V381.419H726.162" stroke="#FF6600" stroke-width="1.8"/>
<path d="M729.492 381.419H733.381V385.308" stroke="#FF6600" stroke-width="1.8"/>
<path d="M733.381 388.642V392.531H729.492" stroke="#FF6600" stroke-width="1.8"/>
<path d="M726.162 392.531H722.273V388.642" stroke="#FF6600" stroke-width="1.8"/>
</g>
<g opacity="0.85">
<path d="M698.342 325.109H693.898V329.554H698.342V325.109Z" fill="#FF6600"/>
<path d="M690.562 325.665V321.775H694.451" stroke="#FF6600" stroke-width="1.8"/>
<path d="M697.781 321.775H701.67V325.665" stroke="#FF6600" stroke-width="1.8"/>
<path d="M701.67 328.998V332.887H697.781" stroke="#FF6600" stroke-width="1.8"/>
<path d="M694.451 332.887H690.562V328.998" stroke="#FF6600" stroke-width="1.8"/>
</g>
<g opacity="0.85">
<path d="M679.835 263.067H675.391V267.512H679.835V263.067Z" fill="#FF6600"/>
<path d="M672.055 263.623V259.733H675.943" stroke="#FF6600" stroke-width="1.8"/>
<path d="M679.273 259.733H683.162V263.623" stroke="#FF6600" stroke-width="1.8"/>
<path d="M683.162 266.956V270.845H679.273" stroke="#FF6600" stroke-width="1.8"/>
<path d="M675.943 270.845H672.055V266.956" stroke="#FF6600" stroke-width="1.8"/>
</g>
<g opacity="0.85">
<path d="M667.733 231.463H663.289V235.908H667.733V231.463Z" fill="#FF6600"/>
<path d="M659.953 232.018V228.129H663.842" stroke="#FF6600" stroke-width="1.8"/>
<path d="M667.172 228.129H671.06V232.018" stroke="#FF6600" stroke-width="1.8"/>
<path d="M671.06 235.352V239.241H667.172" stroke="#FF6600" stroke-width="1.8"/>
<path d="M663.842 239.241H659.953V235.352" stroke="#FF6600" stroke-width="1.8"/>
</g>
<g opacity="0.85">
<path d="M820.827 542.794H816.383V547.239H820.827V542.794Z" fill="#FF6600"/>
<path d="M813.047 543.349V539.46H816.935" stroke="#FF6600" stroke-width="1.8"/>
<path d="M820.266 539.46H824.154V543.349" stroke="#FF6600" stroke-width="1.8"/>
<path d="M824.154 546.683V550.572H820.266" stroke="#FF6600" stroke-width="1.8"/>
<path d="M816.935 550.572H813.047V546.683" stroke="#FF6600" stroke-width="1.8"/>
</g>
<g opacity="0.85">
<path d="M798.374 465.908H793.93V470.353H798.374V465.908Z" fill="#FF6600"/>
<path d="M790.594 466.463V462.574H794.482" stroke="#FF6600" stroke-width="1.8"/>
<path d="M797.812 462.574H801.701V466.463" stroke="#FF6600" stroke-width="1.8"/>
<path d="M801.701 469.797V473.686H797.812" stroke="#FF6600" stroke-width="1.8"/>
<path d="M794.482 473.686H790.594V469.797" stroke="#FF6600" stroke-width="1.8"/>
</g>
<g opacity="0.85">
<path d="M789.694 440.804H785.25V445.248H789.694V440.804Z" fill="#FF6600"/>
<path d="M781.914 441.359V437.47H785.803" stroke="#FF6600" stroke-width="1.8"/>
<path d="M789.133 437.47H793.021V441.359" stroke="#FF6600" stroke-width="1.8"/>
<path d="M793.021 444.692V448.582H789.133" stroke="#FF6600" stroke-width="1.8"/>
<path d="M785.803 448.582H781.914V444.692" stroke="#FF6600" stroke-width="1.8"/>
</g>
<g opacity="0.85">
<path d="M772.772 400.199H768.328V404.644H772.772V400.199Z" fill="#FF6600"/>
<path d="M764.992 400.754V396.865H768.881" stroke="#FF6600" stroke-width="1.8"/>
<path d="M772.211 396.865H776.099V400.754" stroke="#FF6600" stroke-width="1.8"/>
<path d="M776.099 404.088V407.977H772.211" stroke="#FF6600" stroke-width="1.8"/>
<path d="M768.881 407.977H764.992V404.088" stroke="#FF6600" stroke-width="1.8"/>
</g>
<g opacity="0.85">
<path d="M759.35 375.882H754.906V380.327H759.35V375.882Z" fill="#FF6600"/>
<path d="M751.57 376.437V372.548H755.459" stroke="#FF6600" stroke-width="1.8"/>
<path d="M758.789 372.548H762.678V376.437" stroke="#FF6600" stroke-width="1.8"/>
<path d="M762.678 379.771V383.66H758.789" stroke="#FF6600" stroke-width="1.8"/>
<path d="M755.459 383.66H751.57V379.771" stroke="#FF6600" stroke-width="1.8"/>
</g>
<g opacity="0.85">
<path d="M727.616 312.266H723.172V316.71H727.616V312.266Z" fill="#FF6600"/>
<path d="M719.836 312.821V308.932H723.724" stroke="#FF6600" stroke-width="1.8"/>
<path d="M727.055 308.932H730.943V312.821" stroke="#FF6600" stroke-width="1.8"/>
<path d="M730.943 316.154V320.043H727.055" stroke="#FF6600" stroke-width="1.8"/>
<path d="M723.724 320.043H719.836V316.154" stroke="#FF6600" stroke-width="1.8"/>
</g>
<g opacity="0.85">
<path d="M715.444 282.894H711V287.338H715.444V282.894Z" fill="#FF6600"/>
<path d="M707.664 283.449V279.56H711.553" stroke="#FF6600" stroke-width="1.8"/>
<path d="M714.883 279.56H718.771V283.449" stroke="#FF6600" stroke-width="1.8"/>
<path d="M718.771 286.782V290.671H714.883" stroke="#FF6600" stroke-width="1.8"/>
<path d="M711.553 290.671H707.664V286.782" stroke="#FF6600" stroke-width="1.8"/>
</g>
<g opacity="0.85">
<path d="M680.702 193.321H676.258V197.766H680.702V193.321Z" fill="#FF6600"/>
<path d="M672.922 193.877V189.987H676.81" stroke="#FF6600" stroke-width="1.8"/>
<path d="M680.141 189.987H684.029V193.877" stroke="#FF6600" stroke-width="1.8"/>
<path d="M684.029 197.21V201.099H680.141" stroke="#FF6600" stroke-width="1.8"/>
<path d="M676.81 201.099H672.922V197.21" stroke="#FF6600" stroke-width="1.8"/>
</g>
<g opacity="0.85">
<path d="M879.296 592.538H874.852V596.983H879.296V592.538Z" fill="#FF6600"/>
<path d="M871.516 593.093V589.204H875.404" stroke="#FF6600" stroke-width="1.8"/>
<path d="M878.734 589.204H882.623V593.093" stroke="#FF6600" stroke-width="1.8"/>
<path d="M882.623 596.427V600.316H878.734" stroke="#FF6600" stroke-width="1.8"/>
<path d="M875.404 600.316H871.516V596.427" stroke="#FF6600" stroke-width="1.8"/>
</g>
<g opacity="0.85">
<path d="M868.756 557.656H864.312V562.101H868.756V557.656Z" fill="#FF6600"/>
<path d="M860.977 558.211V554.322H864.865" stroke="#FF6600" stroke-width="1.8"/>
<path d="M868.195 554.322H872.084V558.211" stroke="#FF6600" stroke-width="1.8"/>
<path d="M872.084 561.545V565.434H868.195" stroke="#FF6600" stroke-width="1.8"/>
<path d="M864.865 565.434H860.977V561.545" stroke="#FF6600" stroke-width="1.8"/>
</g>
<g opacity="0.85">
<path d="M840.577 491.059H836.133V495.503H840.577V491.059Z" fill="#FF6600"/>
<path d="M832.797 491.614V487.725H836.685" stroke="#FF6600" stroke-width="1.8"/>
<path d="M840.016 487.725H843.904V491.614" stroke="#FF6600" stroke-width="1.8"/>
<path d="M843.904 494.947V498.836H840.016" stroke="#FF6600" stroke-width="1.8"/>
<path d="M836.685 498.836H832.797V494.947" stroke="#FF6600" stroke-width="1.8"/>
</g>
<g opacity="0.85">
<path d="M824.1 454.296H819.656V458.741H824.1V454.296Z" fill="#FF6600"/>
<path d="M816.32 454.851V450.962H820.209" stroke="#FF6600" stroke-width="1.8"/>
<path d="M823.539 450.962H827.428V454.851" stroke="#FF6600" stroke-width="1.8"/>
<path d="M827.428 458.185V462.074H823.539" stroke="#FF6600" stroke-width="1.8"/>
<path d="M820.209 462.074H816.32V458.185" stroke="#FF6600" stroke-width="1.8"/>
</g>
<g opacity="0.85">
<path d="M810.905 429.257H806.461V433.702H810.905V429.257Z" fill="#FF6600"/>
<path d="M803.125 429.812V425.923H807.013" stroke="#FF6600" stroke-width="1.8"/>
<path d="M810.344 425.923H814.232V429.812" stroke="#FF6600" stroke-width="1.8"/>
<path d="M814.232 433.146V437.035H810.344" stroke="#FF6600" stroke-width="1.8"/>
<path d="M807.013 437.035H803.125V433.146" stroke="#FF6600" stroke-width="1.8"/>
</g>
<g opacity="0.85">
<path d="M757.639 297.636H753.195V302.081H757.639V297.636Z" fill="#FF6600"/>
<path d="M749.859 298.191V294.302H753.748" stroke="#FF6600" stroke-width="1.8"/>
<path d="M757.078 294.302H760.967V298.191" stroke="#FF6600" stroke-width="1.8"/>
<path d="M760.967 301.524V305.414H757.078" stroke="#FF6600" stroke-width="1.8"/>
<path d="M753.748 305.414H749.859V301.524" stroke="#FF6600" stroke-width="1.8"/>
</g>
<g opacity="0.85">
<path d="M745.428 267.707H740.984V272.152H745.428V267.707Z" fill="#FF6600"/>
<path d="M737.648 268.262V264.373H741.537" stroke="#FF6600" stroke-width="1.8"/>
<path d="M744.867 264.373H748.756V268.262" stroke="#FF6600" stroke-width="1.8"/>
<path d="M748.756 271.596V275.485H744.867" stroke="#FF6600" stroke-width="1.8"/>
<path d="M741.537 275.485H737.648V271.596" stroke="#FF6600" stroke-width="1.8"/>
</g>
<g opacity="0.85">
<path d="M731.389 237.991H726.945V242.436H731.389V237.991Z" fill="#FF6600"/>
<path d="M723.609 238.546V234.657H727.498" stroke="#FF6600" stroke-width="1.8"/>
<path d="M730.828 234.657H734.717V238.546" stroke="#FF6600" stroke-width="1.8"/>
<path d="M734.717 241.88V245.769H730.828" stroke="#FF6600" stroke-width="1.8"/>
<path d="M727.498 245.769H723.609V241.88" stroke="#FF6600" stroke-width="1.8"/>
</g>
<g opacity="0.85">
<path d="M720.835 201.831H716.391V206.276H720.835V201.831Z" fill="#FF6600"/>
<path d="M713.055 202.386V198.497H716.943" stroke="#FF6600" stroke-width="1.8"/>
<path d="M720.273 198.497H724.162V202.386" stroke="#FF6600" stroke-width="1.8"/>
<path d="M724.162 205.72V209.609H720.273" stroke="#FF6600" stroke-width="1.8"/>
<path d="M716.943 209.609H713.055V205.72" stroke="#FF6600" stroke-width="1.8"/>
</g>
<g opacity="0.85">
<path d="M707.171 178.098H702.727V182.542H707.171V178.098Z" fill="#FF6600"/>
<path d="M699.391 178.653V174.764H703.279" stroke="#FF6600" stroke-width="1.8"/>
<path d="M706.609 174.764H710.498V178.653" stroke="#FF6600" stroke-width="1.8"/>
<path d="M710.498 181.986V185.876H706.609" stroke="#FF6600" stroke-width="1.8"/>
<path d="M703.279 185.876H699.391V181.986" stroke="#FF6600" stroke-width="1.8"/>
</g>
<g opacity="0.85">
<path d="M698.624 143.392H694.18V147.836H698.624V143.392Z" fill="#FF6600"/>
<path d="M690.844 143.947V140.058H694.732" stroke="#FF6600" stroke-width="1.8"/>
<path d="M698.062 140.058H701.951V143.947" stroke="#FF6600" stroke-width="1.8"/>
<path d="M701.951 147.28V151.169H698.062" stroke="#FF6600" stroke-width="1.8"/>
<path d="M694.732 151.169H690.844V147.28" stroke="#FF6600" stroke-width="1.8"/>
</g>
<g opacity="0.85">
<path d="M682.881 110.454H678.438V114.899H682.881V110.454Z" fill="#FF6600"/>
<path d="M675.102 111.009V107.12H678.99" stroke="#FF6600" stroke-width="1.8"/>
<path d="M682.32 107.12H686.209V111.009" stroke="#FF6600" stroke-width="1.8"/>
<path d="M686.209 114.343V118.232H682.32" stroke="#FF6600" stroke-width="1.8"/>
<path d="M678.99 118.232H675.102V114.343" stroke="#FF6600" stroke-width="1.8"/>
</g>
<g opacity="0.85">
<path d="M894.475 539.08H890.031V543.525H894.475V539.08Z" fill="#FF6600"/>
<path d="M886.695 539.635V535.746H890.584" stroke="#FF6600" stroke-width="1.8"/>
<path d="M893.914 535.746H897.803V539.635" stroke="#FF6600" stroke-width="1.8"/>
<path d="M897.803 542.969V546.858H893.914" stroke="#FF6600" stroke-width="1.8"/>
<path d="M890.584 546.858H886.695V542.969" stroke="#FF6600" stroke-width="1.8"/>
</g>
<g opacity="0.85">
<path d="M812.671 342.769H808.227V347.213H812.671V342.769Z" fill="#FF6600"/>
<path d="M804.891 343.324V339.435H808.779" stroke="#FF6600" stroke-width="1.8"/>
<path d="M812.109 339.435H815.998V343.324" stroke="#FF6600" stroke-width="1.8"/>
<path d="M815.998 346.657V350.546H812.109" stroke="#FF6600" stroke-width="1.8"/>
<path d="M808.779 350.546H804.891V346.657" stroke="#FF6600" stroke-width="1.8"/>
</g>
<g opacity="0.85">
<path d="M785.803 282.421H781.359V286.866H785.803V282.421Z" fill="#FF6600"/>
<path d="M778.023 282.976V279.087H781.912" stroke="#FF6600" stroke-width="1.8"/>
<path d="M785.242 279.087H789.131V282.976" stroke="#FF6600" stroke-width="1.8"/>
<path d="M789.131 286.31V290.199H785.242" stroke="#FF6600" stroke-width="1.8"/>
<path d="M781.912 290.199H778.023V286.31" stroke="#FF6600" stroke-width="1.8"/>
</g>
<g opacity="0.85">
<path d="M739.694 165.958H735.25V170.403H739.694V165.958Z" fill="#FF6600"/>
<path d="M731.914 166.513V162.624H735.803" stroke="#FF6600" stroke-width="1.8"/>
<path d="M739.133 162.624H743.021V166.513" stroke="#FF6600" stroke-width="1.8"/>
<path d="M743.021 169.847V173.736H739.133" stroke="#FF6600" stroke-width="1.8"/>
<path d="M735.803 173.736H731.914V169.847" stroke="#FF6600" stroke-width="1.8"/>
</g>
<g opacity="0.85">
<path d="M904.585 491.493H900.141V495.938H904.585V491.493Z" fill="#FF6600"/>
<path d="M896.805 492.048V488.159H900.693" stroke="#FF6600" stroke-width="1.8"/>
<path d="M904.023 488.159H907.912V492.048" stroke="#FF6600" stroke-width="1.8"/>
<path d="M907.912 495.382V499.271H904.023" stroke="#FF6600" stroke-width="1.8"/>
<path d="M900.693 499.271H896.805V495.382" stroke="#FF6600" stroke-width="1.8"/>
</g>
<g opacity="0.85">
<path d="M896.772 457.806H892.328V462.25H896.772V457.806Z" fill="#FF6600"/>
<path d="M888.992 458.361V454.472H892.881" stroke="#FF6600" stroke-width="1.8"/>
<path d="M896.211 454.472H900.099V458.361" stroke="#FF6600" stroke-width="1.8"/>
<path d="M900.099 461.694V465.584H896.211" stroke="#FF6600" stroke-width="1.8"/>
<path d="M892.881 465.584H888.992V461.694" stroke="#FF6600" stroke-width="1.8"/>
</g>
<g opacity="0.85">
<path d="M885.749 428.433H881.305V432.877H885.749V428.433Z" fill="#FF6600"/>
<path d="M877.969 428.988V425.099H881.857" stroke="#FF6600" stroke-width="1.8"/>
<path d="M885.188 425.099H889.076V428.988" stroke="#FF6600" stroke-width="1.8"/>
<path d="M889.076 432.321V436.211H885.188" stroke="#FF6600" stroke-width="1.8"/>
<path d="M881.857 436.211H877.969V432.321" stroke="#FF6600" stroke-width="1.8"/>
</g>
<g opacity="0.85">
<path d="M869.553 401.199H865.109V405.644H869.553V401.199Z" fill="#FF6600"/>
<path d="M861.773 401.754V397.865H865.662" stroke="#FF6600" stroke-width="1.8"/>
<path d="M868.992 397.865H872.881V401.754" stroke="#FF6600" stroke-width="1.8"/>
<path d="M872.881 405.088V408.977H868.992" stroke="#FF6600" stroke-width="1.8"/>
<path d="M865.662 408.977H861.773V405.088" stroke="#FF6600" stroke-width="1.8"/>
</g>
<g opacity="0.85">
<path d="M860.835 361.362H856.391V365.807H860.835V361.362Z" fill="#FF6600"/>
<path d="M853.055 361.918V358.028H856.943" stroke="#FF6600" stroke-width="1.8"/>
<path d="M860.273 358.028H864.162V361.918" stroke="#FF6600" stroke-width="1.8"/>
<path d="M864.162 365.251V369.14H860.273" stroke="#FF6600" stroke-width="1.8"/>
<path d="M856.943 369.14H853.055V365.251" stroke="#FF6600" stroke-width="1.8"/>
</g>
<g opacity="0.85">
<path d="M848.217 333.889H843.773V338.333H848.217V333.889Z" fill="#FF6600"/>
<path d="M840.438 334.444V330.555H844.326" stroke="#FF6600" stroke-width="1.8"/>
<path d="M847.656 330.555H851.545V334.444" stroke="#FF6600" stroke-width="1.8"/>
<path d="M851.545 337.777V341.667H847.656" stroke="#FF6600" stroke-width="1.8"/>
<path d="M844.326 341.667H840.438V337.777" stroke="#FF6600" stroke-width="1.8"/>
</g>
<g opacity="0.85">
<path d="M828.889 298.978H824.445V303.422H828.889V298.978Z" fill="#FF6600"/>
<path d="M821.109 299.533V295.644H824.998" stroke="#FF6600" stroke-width="1.8"/>
<path d="M828.328 295.644H832.217V299.533" stroke="#FF6600" stroke-width="1.8"/>
<path d="M832.217 302.866V306.755H828.328" stroke="#FF6600" stroke-width="1.8"/>
<path d="M824.998 306.755H821.109V302.866" stroke="#FF6600" stroke-width="1.8"/>
</g>
</svg>
